<svg width="24" height="24" viewBox="0 0 24 24" fill="none" xmlns="http://www.w3.org/2000/svg">
<path d="M2.30773 18.2609H21.6923C21.941 21.3532 19.4986 24 16.3962 24H7.60386C4.50152 24 2.05904 21.3532 2.30773 18.2609Z" fill="#FE9738"/>
<path d="M0.93773 17.0821C0.484757 15.8873 1.36744 14.6087 2.64522 14.6087H21.3548C22.6326 14.6087 23.5152 15.8873 23.0623 17.0821C22.7933 17.7916 22.1136 18.2609 21.3548 18.2609H2.64522C1.88644 18.2609 1.20672 17.7916 0.93773 17.0821Z" fill="#E94444"/>
<path d="M21.6922 15.1304V12H2.30762L2.30772 16.1739C2.30765 16.6957 2.30758 17.2174 2.76926 17.2174C4.15387 17.2174 3.23069 15.6522 4.61531 15.6522C5.99992 15.6522 4.15377 17.2174 6.46146 17.2174C9.23069 17.2174 7.84608 15.6522 9.69223 15.6522C11.5384 15.6522 10.1538 17.2174 11.9999 17.2174C13.8461 17.2174 12.4615 15.6522 14.3076 15.6522C16.1538 15.6522 14.7692 17.2174 16.6153 17.2174C18.4615 17.2174 18.4615 15.6522 19.3845 15.6522C20.3076 15.6522 19.8461 16.6957 20.7692 16.6957C21.5076 16.6957 21.6922 16 21.6922 15.6522V15.1304Z" fill="#BBEC6C"/>
<path d="M2.30762 14.6087V12H21.6922V14.6087H8.30762C7.56916 14.6087 7.38454 14.9565 7.38454 15.1304V19.8261C7.38454 20.8696 6.923 21.3913 5.99992 21.3913C5.26146 21.3913 5.07685 20.3478 5.07685 19.8261V15.1304C5.07685 14.713 4.76916 14.6087 4.61531 14.6087H2.30762Z" fill="#FEE45A"/>
<path d="M0.93773 11.8647C0.484757 10.6699 1.36744 9.3913 2.64522 9.3913H21.3548C22.6326 9.3913 23.5152 10.6699 23.0623 11.8647C22.7933 12.5742 22.1136 13.0435 21.3548 13.0435H2.64522C1.88644 13.0435 1.20672 12.5742 0.93773 11.8647Z" fill="#9E5528"/>
<path d="M23.0768 7.30435C22.6153 10.4348 17.9999 9.3913 11.9999 9.3913C5.88231 9.3913 0.461463 10.4348 0.922987 7.30435C2.3076 3.65217 5.88224 0 11.9999 0C18.1175 0 21.2307 3.13043 23.0768 7.30435Z" fill="#FE9738"/>
<path d="M9.46167 2.37292L9.00013 3.2766" stroke="#E57917" stroke-width="0.6" stroke-linecap="round"/>
<path d="M15.0002 3.27661L14.5387 2.37293" stroke="#E57917" stroke-width="0.6" stroke-linecap="round"/>
<path d="M12 3.2066V2.16313" stroke="#E57917" stroke-width="0.6" stroke-linecap="round"/>
</svg>
