<?xml version="1.0" encoding="UTF-8"?>
<svg width="172" height="170" viewBox="0 0 172 170" fill="none" xmlns="http://www.w3.org/2000/svg">
    <g clip-path="url(#clip0_302_170)">
        <path
            d="M164.613 57.7562L163.844 57.4758L170.901 34.6146C171.984 31.1055 171.738 27.2731 170.218 23.9606C168.698 20.648 166.028 18.1266 162.795 16.951L162.794 16.9508L118.17 0.726556C114.937 -0.449045 111.407 -0.182523 108.355 1.46749C105.303 3.1175 102.98 6.01585 101.897 9.52492L101.897 9.52556L63.1897 134.944C62.6534 136.682 62.4377 138.517 62.5548 140.345C62.6719 142.173 63.1196 143.958 63.8723 145.598C64.625 147.238 65.668 148.702 66.9417 149.904C68.2154 151.107 69.6948 152.026 71.2956 152.608L71.2962 152.608L115.919 168.833C119.152 170.009 122.683 169.742 125.734 168.092C128.786 166.442 131.109 163.543 132.192 160.034L158.821 73.75L159.59 74.0295L164.613 57.7562Z"
            fill="#3F3D56" />
        <path
            d="M162.222 20.5728L156.397 18.4548C156.445 19.265 156.309 20.0756 156 20.8151C155.691 21.5546 155.22 22.2003 154.627 22.6954C154.034 23.1905 153.338 23.5198 152.601 23.6542C151.863 23.7886 151.106 23.7241 150.397 23.4663L124.834 14.1712C124.124 13.9131 123.485 13.4697 122.971 12.8801C122.457 12.2905 122.084 11.5727 121.886 10.7899C121.687 10.0072 121.669 9.18352 121.833 8.39147C121.997 7.59943 122.338 6.86332 122.826 6.24796L117.386 4.26979C114.972 3.39193 112.335 3.59106 110.056 4.82336C107.777 6.05567 106.042 8.2202 105.233 10.8408L66.5813 136.075C65.7725 138.696 65.956 141.558 67.0913 144.032C68.2266 146.505 70.2208 148.388 72.6352 149.266L117.473 165.57C119.887 166.447 122.524 166.248 124.803 165.016C127.082 163.784 128.817 161.619 129.626 158.999L168.276 33.7639C169.085 31.1432 168.902 28.2812 167.766 25.8074C166.631 23.3336 164.637 21.4506 162.222 20.5728L162.222 20.5728Z"
            fill="white" />
        <path
            d="M151.009 62.5876L103.159 45.189C102.924 45.1033 102.73 44.92 102.62 44.6793C102.509 44.4386 102.491 44.1601 102.569 43.905L106.546 31.0209C106.625 30.766 106.794 30.5555 107.015 30.4356C107.237 30.3157 107.494 30.2962 107.729 30.3813L155.579 47.7802C155.814 47.8659 156.008 48.0492 156.119 48.2899C156.229 48.5306 156.247 48.8091 156.169 49.0642L152.192 61.9478C152.113 62.2027 151.944 62.4132 151.723 62.5331C151.501 62.653 151.244 62.6726 151.009 62.5874L151.009 62.5876ZM107.61 30.7665C107.469 30.7154 107.315 30.7272 107.182 30.7991C107.049 30.8711 106.948 30.9974 106.9 31.1503L102.924 44.034C102.877 44.1871 102.888 44.3541 102.954 44.4985C103.02 44.643 103.137 44.7529 103.278 44.8043L151.128 62.2031C151.269 62.2542 151.423 62.2425 151.556 62.1705C151.689 62.0986 151.79 61.9723 151.838 61.8193L155.815 48.9363C155.862 48.7832 155.851 48.6162 155.785 48.4718C155.718 48.3273 155.602 48.2174 155.461 48.166L107.61 30.7665Z"
            fill="#3F3D56" />
        <path
            d="M135.277 113.564L87.4263 96.1653C87.1915 96.0796 86.9975 95.8963 86.8871 95.6556C86.7766 95.4149 86.7586 95.1364 86.8371 94.8813L94.1972 71.0334C94.2761 70.7785 94.445 70.568 94.6668 70.4481C94.8886 70.3282 95.1451 70.3087 95.3801 70.3938L143.231 87.792C143.466 87.8777 143.66 88.061 143.77 88.3017C143.88 88.5424 143.898 88.8209 143.82 89.076L136.46 112.924C136.381 113.179 136.212 113.39 135.99 113.51C135.768 113.629 135.512 113.649 135.277 113.564ZM95.2613 70.7783C95.1203 70.7272 94.9664 70.739 94.8333 70.8109C94.7003 70.8829 94.599 71.0092 94.5516 71.1622L87.1915 95.0101C87.1444 95.1631 87.1552 95.3302 87.2215 95.4746C87.2878 95.619 87.4042 95.729 87.5451 95.7804L135.396 113.179C135.537 113.23 135.691 113.219 135.824 113.147C135.957 113.075 136.058 112.948 136.105 112.795L143.466 88.947C143.513 88.794 143.502 88.6269 143.436 88.4825C143.37 88.3381 143.253 88.2281 143.112 88.1767L95.2613 70.7783Z"
            fill="#3F3D56" />
        <path
            d="M144.48 82.4647L123.214 74.7309C122.979 74.6452 122.785 74.4619 122.674 74.2212C122.564 73.9804 122.546 73.702 122.624 73.4469L126.601 60.5632C126.68 60.3084 126.849 60.0979 127.07 59.978C127.292 59.8581 127.549 59.8385 127.784 59.9237L149.051 67.6572C149.285 67.7429 149.479 67.9262 149.59 68.167C149.7 68.4077 149.718 68.6861 149.64 68.9412L145.664 81.8249C145.585 82.08 145.416 82.2907 145.194 82.4107C144.972 82.5307 144.715 82.5501 144.48 82.4647ZM127.665 60.3093C127.524 60.2582 127.37 60.2699 127.237 60.3419C127.104 60.4138 127.003 60.5402 126.955 60.6931L122.979 73.5768C122.932 73.7298 122.943 73.8969 123.009 74.0413C123.075 74.1857 123.192 74.2957 123.333 74.3471L144.6 82.0797C144.741 82.1308 144.894 82.1191 145.028 82.0471C145.161 81.9752 145.262 81.8488 145.309 81.6959L149.286 68.8122C149.333 68.6592 149.322 68.4921 149.255 68.3477C149.189 68.2033 149.073 68.0933 148.932 68.0419L127.665 60.3093Z"
            fill="#E6E6E6" />
        <path
            d="M99.0756 135.061L77.8094 127.328C77.5745 127.242 77.3806 127.059 77.2701 126.818C77.1597 126.578 77.1417 126.299 77.2201 126.044L84.6396 102.003C84.7186 101.749 84.8875 101.538 85.1093 101.418C85.331 101.298 85.5876 101.279 85.8226 101.364L107.089 109.097C107.324 109.182 107.518 109.366 107.628 109.606C107.739 109.847 107.757 110.125 107.678 110.381L100.259 134.421C100.18 134.676 100.011 134.887 99.7889 135.007C99.5671 135.126 99.3106 135.146 99.0756 135.061ZM85.7032 101.748C85.5622 101.697 85.4082 101.709 85.2752 101.781C85.1421 101.853 85.0408 101.979 84.9935 102.132L77.5737 126.173C77.5267 126.326 77.5375 126.493 77.6038 126.637C77.6701 126.782 77.7865 126.892 77.9274 126.943L99.1944 134.676C99.3354 134.727 99.4893 134.715 99.6224 134.644C99.7554 134.572 99.8567 134.445 99.9041 134.292L107.324 110.252C107.371 110.099 107.36 109.931 107.294 109.787C107.227 109.643 107.111 109.533 106.97 109.481L85.7032 101.748Z"
            fill="#E6E6E6" />
        <path
            d="M125.305 144.598L104.038 136.865C103.803 136.779 103.609 136.596 103.499 136.355C103.388 136.115 103.37 135.836 103.449 135.581L110.868 111.54C110.947 111.286 111.116 111.075 111.338 110.955C111.559 110.835 111.816 110.816 112.051 110.901L133.318 118.634C133.553 118.719 133.747 118.903 133.857 119.143C133.968 119.384 133.986 119.663 133.907 119.918L126.488 143.958C126.409 144.213 126.24 144.424 126.018 144.544C125.796 144.664 125.54 144.683 125.305 144.598ZM111.932 111.286C111.791 111.234 111.637 111.246 111.504 111.318C111.371 111.39 111.27 111.516 111.223 111.669L103.803 135.71C103.756 135.863 103.767 136.03 103.833 136.175C103.899 136.319 104.016 136.429 104.157 136.48L125.424 144.214C125.565 144.265 125.719 144.253 125.852 144.181C125.985 144.109 126.086 143.983 126.133 143.83L133.553 119.789C133.6 119.636 133.589 119.469 133.523 119.324C133.456 119.18 133.34 119.07 133.199 119.019L111.932 111.286Z"
            fill="#E6E6E6" />
        <path
            d="M99.8534 85.5479C101.956 85.5479 103.66 83.698 103.66 81.4159C103.66 79.1339 101.956 77.284 99.8534 77.284C97.751 77.284 96.0466 79.1339 96.0466 81.4159C96.0466 83.698 97.751 85.5479 99.8534 85.5479Z"
            fill="#C58EF1" />
        <path
            d="M108.995 81.8352C108.836 81.7772 108.661 81.7904 108.511 81.8718C108.36 81.9532 108.246 82.0963 108.192 82.2695C108.139 82.4427 108.151 82.6318 108.226 82.7953C108.301 82.9588 108.433 83.0832 108.592 83.1412L136.953 93.4534C137.032 93.4821 137.116 93.4937 137.199 93.4874C137.282 93.4811 137.363 93.4571 137.438 93.4168C137.512 93.3765 137.579 93.3206 137.633 93.2524C137.688 93.1841 137.73 93.1049 137.756 93.0191C137.783 92.9334 137.793 92.8428 137.788 92.7526C137.782 92.6624 137.76 92.5743 137.723 92.4933C137.686 92.4124 137.634 92.3401 137.571 92.2808C137.508 92.2214 137.435 92.1761 137.356 92.1474L108.995 81.8352Z"
            fill="#E6E6E6" />
        <path
            d="M107.787 85.7531C107.708 85.7243 107.624 85.7128 107.541 85.719C107.458 85.7253 107.377 85.7493 107.302 85.7896C107.228 85.8299 107.161 85.8858 107.106 85.9541C107.052 86.0223 107.01 86.1015 106.984 86.1873C106.957 86.273 106.946 86.3636 106.952 86.4538C106.958 86.5441 106.98 86.6322 107.017 86.7131C107.054 86.7941 107.106 86.8663 107.169 86.9256C107.232 86.985 107.305 87.0303 107.384 87.0591L119.587 91.4965C119.666 91.5253 119.75 91.5368 119.833 91.5306C119.916 91.5243 119.997 91.5003 120.072 91.46C120.146 91.4196 120.213 91.3638 120.268 91.2955C120.322 91.2273 120.364 91.148 120.391 91.0623C120.417 90.9765 120.428 90.886 120.422 90.7958C120.416 90.7055 120.394 90.6174 120.357 90.5365C120.32 90.4555 120.268 90.3833 120.205 90.324C120.143 90.2646 120.07 90.2192 119.991 90.1905L107.787 85.7531Z"
            fill="#E6E6E6" />
        <path
            d="M94.7486 87.9788C94.2909 87.8124 93.8282 87.97 93.7171 88.331C93.606 88.6919 93.888 89.1193 94.3457 89.2857L133.475 103.513C133.933 103.68 134.396 103.522 134.507 103.161C134.618 102.8 134.336 102.373 133.878 102.207L94.7486 87.9788Z"
            fill="#E6E6E6" />
        <path
            d="M93.5393 91.8969C93.0817 91.7305 92.619 91.8881 92.5078 92.249C92.3967 92.61 92.6788 93.0374 93.1364 93.2038L132.266 107.432C132.724 107.598 133.186 107.44 133.297 107.079C133.409 106.718 133.127 106.291 132.669 106.125L93.5393 91.8969Z"
            fill="#E6E6E6" />
        <path
            d="M113.032 44.1264C115.134 44.1264 116.838 42.2765 116.838 39.9945C116.838 37.7124 115.134 35.8625 113.032 35.8625C110.929 35.8625 109.225 37.7124 109.225 39.9945C109.225 42.2765 110.929 44.1264 113.032 44.1264Z"
            fill="#C58EF1" />
        <path
            d="M122.174 40.4135C122.095 40.3848 122.011 40.3732 121.928 40.3795C121.845 40.3858 121.764 40.4098 121.689 40.4501C121.615 40.4904 121.548 40.5463 121.494 40.6145C121.439 40.6827 121.397 40.762 121.371 40.8477C121.344 40.9335 121.334 41.0241 121.339 41.1143C121.345 41.2045 121.367 41.2926 121.404 41.3736C121.441 41.4545 121.493 41.5267 121.556 41.5861C121.619 41.6455 121.692 41.6908 121.771 41.7195L150.132 52.0317C150.211 52.0604 150.294 52.0719 150.377 52.0657C150.46 52.0594 150.542 52.0354 150.616 51.9951C150.691 51.9548 150.757 51.8989 150.812 51.8307C150.867 51.7624 150.908 51.6832 150.935 51.5974C150.961 51.5117 150.972 51.4211 150.966 51.3309C150.961 51.2406 150.938 51.1525 150.901 51.0716C150.864 50.9906 150.813 50.9184 150.75 50.8591C150.687 50.7997 150.614 50.7544 150.535 50.7256L122.174 40.4135Z"
            fill="#E6E6E6" />
        <path
            d="M120.965 44.3316C120.886 44.3028 120.802 44.2913 120.719 44.2976C120.636 44.3038 120.555 44.3278 120.48 44.3681C120.406 44.4085 120.339 44.4643 120.284 44.5326C120.23 44.6008 120.188 44.68 120.162 44.7658C120.135 44.8516 120.124 44.9421 120.13 45.0323C120.136 45.1226 120.158 45.2107 120.195 45.2916C120.232 45.3726 120.284 45.4448 120.347 45.5042C120.41 45.5635 120.483 45.6088 120.562 45.6376L132.765 50.075C132.844 50.1038 132.928 50.1153 133.011 50.1091C133.094 50.1028 133.175 50.0788 133.25 50.0385C133.324 49.9982 133.391 49.9423 133.446 49.874C133.5 49.8058 133.542 49.7266 133.569 49.6408C133.595 49.555 133.606 49.4645 133.6 49.3743C133.594 49.284 133.572 49.1959 133.535 49.115C133.498 49.034 133.446 48.9618 133.383 48.9025C133.321 48.8431 133.248 48.7978 133.169 48.769L120.965 44.3316Z"
            fill="#E6E6E6" />
        <path
            d="M118.232 72.9231L98.2817 65.6691L105.701 58.5494C105.834 58.4218 105.995 58.3343 106.169 58.296C106.343 58.2576 106.523 58.2696 106.692 58.3308C106.86 58.392 107.011 58.5002 107.128 58.6445C107.246 58.7889 107.326 58.9643 107.362 59.1531L108.203 63.6531L113.592 58.481C113.759 58.3212 113.961 58.2119 114.179 58.1639C114.397 58.1159 114.622 58.1309 114.833 58.2076C115.044 58.2842 115.232 58.4196 115.379 58.6003C115.526 58.781 115.627 59.0006 115.671 59.237L118.232 72.9231ZM99.0143 65.5076L117.737 72.3152L115.305 59.3186C115.274 59.1521 115.203 58.9974 115.099 58.8702C114.995 58.7429 114.863 58.6474 114.714 58.5935C114.566 58.5395 114.407 58.5289 114.253 58.5627C114.1 58.5965 113.957 58.6735 113.84 58.786L107.966 64.4227L106.995 59.2341C106.973 59.1151 106.922 59.0046 106.848 58.9136C106.774 58.8226 106.679 58.7544 106.573 58.7158C106.467 58.6773 106.353 58.6697 106.244 58.6939C106.134 58.7181 106.032 58.7731 105.949 58.8536L99.0143 65.5076Z"
            fill="#E6E6E6" />
        <path
            d="M118.251 72.9275L96.9847 65.1948C96.7498 65.1091 96.5559 64.9258 96.4454 64.6851C96.335 64.4444 96.317 64.1659 96.3954 63.9108L100.372 51.0272C100.45 50.7723 100.619 50.5618 100.841 50.4419C101.063 50.322 101.319 50.3024 101.554 50.3876L122.821 58.1205C123.056 58.2062 123.25 58.3895 123.361 58.6302C123.471 58.8709 123.489 59.1494 123.411 59.4045L119.434 72.2879C119.355 72.5428 119.187 72.7533 118.965 72.8732C118.743 72.9931 118.486 73.0126 118.251 72.9275ZM101.436 50.7721C101.295 50.721 101.141 50.7327 101.008 50.8047C100.875 50.8766 100.773 51.003 100.726 51.1559L96.75 64.0396C96.703 64.1926 96.7138 64.3597 96.7801 64.5041C96.8464 64.6485 96.9628 64.7585 97.1037 64.8099L118.371 72.5428C118.512 72.5939 118.666 72.5821 118.799 72.5102C118.932 72.4382 119.033 72.3119 119.08 72.1589L123.057 59.2753C123.104 59.1222 123.093 58.9552 123.027 58.8107C122.96 58.6663 122.844 58.5564 122.703 58.505L101.436 50.7721Z"
            fill="#E6E6E6" />
        <path
            d="M88.8234 107.969C88.7443 107.94 88.6608 107.928 88.5776 107.935C88.4945 107.941 88.4132 107.965 88.3385 108.005C88.2639 108.045 88.1972 108.101 88.1425 108.17C88.0877 108.238 88.0459 108.317 88.0194 108.403C87.9929 108.489 87.9823 108.579 87.9881 108.67C87.9939 108.76 88.0161 108.848 88.0533 108.929C88.0905 109.01 88.1421 109.082 88.2051 109.142C88.268 109.201 88.3412 109.246 88.4203 109.275L100.624 113.712C100.784 113.77 100.958 113.757 101.108 113.675C101.259 113.594 101.373 113.451 101.427 113.278C101.48 113.105 101.468 112.916 101.393 112.753C101.318 112.589 101.187 112.465 101.027 112.406L88.8234 107.969Z"
            fill="#E6E6E6" />
        <path
            d="M87.636 111.816C87.557 111.787 87.4735 111.776 87.3903 111.782C87.3071 111.788 87.2258 111.812 87.1512 111.852C87.0765 111.893 87.0099 111.948 86.9551 112.017C86.9004 112.085 86.8586 112.164 86.8321 112.25C86.8056 112.336 86.7949 112.427 86.8007 112.517C86.8065 112.607 86.8287 112.695 86.8659 112.776C86.9032 112.857 86.9547 112.93 87.0177 112.989C87.0807 113.048 87.1538 113.094 87.2329 113.122L99.437 117.561C99.5964 117.618 99.7703 117.604 99.9205 117.523C100.071 117.441 100.185 117.299 100.238 117.126C100.292 116.953 100.28 116.764 100.205 116.601C100.13 116.437 99.9992 116.313 99.8401 116.255L87.636 111.816Z"
            fill="#E6E6E6" />
        <path
            d="M122.303 137.993C122.463 138.05 122.637 138.037 122.787 137.956C122.938 137.874 123.052 137.731 123.106 137.558C123.159 137.385 123.147 137.196 123.072 137.033C122.997 136.869 122.866 136.745 122.706 136.687L110.502 132.249C110.343 132.191 110.169 132.205 110.018 132.286C109.868 132.368 109.754 132.511 109.7 132.684C109.647 132.857 109.659 133.046 109.734 133.209C109.808 133.373 109.94 133.497 110.099 133.555L122.303 137.993Z"
            fill="#E6E6E6" />
        <path
            d="M123.491 134.145C123.57 134.174 123.653 134.186 123.736 134.18C123.82 134.173 123.901 134.149 123.975 134.109C124.05 134.069 124.117 134.013 124.171 133.945C124.226 133.876 124.268 133.797 124.295 133.711C124.321 133.625 124.332 133.535 124.326 133.445C124.32 133.354 124.298 133.266 124.261 133.185C124.223 133.104 124.172 133.032 124.109 132.973C124.046 132.913 123.973 132.868 123.894 132.839L111.69 128.402C111.611 128.373 111.527 128.361 111.444 128.367C111.361 128.374 111.28 128.398 111.205 128.438C111.13 128.478 111.064 128.534 111.009 128.602C110.954 128.671 110.912 128.75 110.886 128.836C110.859 128.922 110.849 129.012 110.855 129.102C110.86 129.193 110.883 129.281 110.92 129.362C110.957 129.443 111.009 129.515 111.072 129.575C111.135 129.634 111.208 129.679 111.287 129.708L123.491 134.145Z"
            fill="#E6E6E6" />
        <path
            d="M142.551 72.5199C142.63 72.5488 142.713 72.5604 142.797 72.5542C142.88 72.548 142.961 72.5241 143.036 72.4838C143.11 72.4435 143.177 72.3876 143.232 72.3194C143.287 72.2511 143.328 72.1718 143.355 72.0859C143.381 72.0001 143.392 71.9095 143.386 71.8192C143.38 71.7289 143.358 71.6407 143.321 71.5597C143.284 71.4787 143.232 71.4065 143.169 71.3471C143.106 71.2878 143.033 71.2425 142.954 71.2139L130.75 66.7764C130.671 66.7475 130.588 66.7359 130.504 66.7421C130.421 66.7483 130.34 66.7722 130.265 66.8125C130.191 66.8528 130.124 66.9087 130.069 66.977C130.014 67.0452 129.973 67.1245 129.946 67.2104C129.92 67.2962 129.909 67.3868 129.915 67.4771C129.921 67.5674 129.943 67.6556 129.98 67.7366C130.017 67.8176 130.069 67.8898 130.132 67.9492C130.195 68.0085 130.268 68.0538 130.347 68.0824L142.551 72.5199Z"
            fill="#E6E6E6" />
        <path
            d="M141.537 75.6012C141.616 75.63 141.7 75.6417 141.783 75.6355C141.866 75.6293 141.947 75.6054 142.022 75.5651C142.097 75.5248 142.163 75.4689 142.218 75.4006C142.273 75.3324 142.314 75.253 142.341 75.1672C142.367 75.0814 142.378 74.9907 142.372 74.9004C142.366 74.8101 142.344 74.722 142.307 74.641C142.27 74.56 142.218 74.4878 142.155 74.4284C142.092 74.3691 142.019 74.3238 141.94 74.2951L129.736 69.8577C129.657 69.8288 129.574 69.8171 129.49 69.8233C129.407 69.8295 129.326 69.8534 129.251 69.8938C129.177 69.9341 129.11 69.9899 129.055 70.0582C129.001 70.1265 128.959 70.2058 128.932 70.2916C128.906 70.3775 128.895 70.4681 128.901 70.5584C128.907 70.6487 128.929 70.7369 128.966 70.8179C129.003 70.8988 129.055 70.9711 129.118 71.0304C129.181 71.0898 129.254 71.135 129.333 71.1637L141.537 75.6012Z"
            fill="#E6E6E6" />
        <path
            d="M35.3351 70.0142C38.8996 70.0142 41.7893 66.8777 41.7893 63.0087C41.7893 59.1397 38.8996 56.0032 35.3351 56.0032C31.7706 56.0032 28.881 59.1397 28.881 63.0087C28.881 66.8777 31.7706 70.0142 35.3351 70.0142Z"
            fill="#FFB9B9" />
        <path
            d="M31.6044 63.8754C32.116 63.8422 32.6156 64.0295 33.1238 64.1032C34.9416 64.3651 36.8324 62.9334 37.2339 60.9914C37.2661 60.7327 37.3371 60.4816 37.4442 60.2479C37.724 59.752 38.3611 59.6576 38.8863 59.7716C39.4114 59.8856 39.9094 60.1524 40.4443 60.183C41.2702 60.2301 42.063 59.6781 42.5033 58.9181C42.9192 58.1341 43.096 57.2274 43.0086 56.3276L42.6125 56.7786C42.4517 56.4092 42.3896 55.9982 42.4333 55.5923C42.2235 55.5317 42.0028 55.5305 41.7925 55.5889C41.5821 55.6473 41.3891 55.7634 41.2319 55.926C40.8827 55.9663 41.1463 55.2232 40.8872 54.9664C40.761 54.8823 40.6107 54.8518 40.465 54.8808C39.7223 54.8885 39.1215 54.272 38.5363 53.7757C37.5223 52.9176 36.3365 52.3305 35.0748 52.0618C34.2362 51.8842 33.3444 51.8558 32.5491 52.1939C31.9071 52.5067 31.3276 52.9529 30.8434 53.5072C29.5982 54.8057 28.4956 56.3338 27.9777 58.1225C27.5565 59.5876 27.5446 61.1553 27.9434 62.6277C28.1521 63.3923 28.7813 66.0112 29.7022 66.0721C30.8586 66.1494 30.1641 63.9687 31.6044 63.8754Z"
            fill="#2F2E41" />
        <path
            d="M26.6669 117.098C27.0248 116.832 27.3246 116.483 27.5451 116.078C27.7656 115.672 27.9014 115.219 27.943 114.75C27.9847 114.281 27.9311 113.808 27.7861 113.364C27.641 112.92 27.4081 112.516 27.1037 112.18L28.2552 84.2798L22.3925 84.994L22.7332 112.285C22.2474 112.878 21.9787 113.643 21.9782 114.436C21.9776 115.229 22.2451 115.995 22.73 116.589C23.2149 117.182 23.8835 117.562 24.6091 117.656C25.3348 117.75 26.0669 117.552 26.6669 117.099V117.098Z"
            fill="#FFB9B9" />
        <path d="M37.3619 164.327L40.6987 164.963L43.9965 151.296L39.6246 150.356L37.3619 164.327Z"
            fill="#FFB9B9" />
        <path
            d="M46.5659 169.56L36.078 167.549L36.7938 163.151L43.2296 164.385C44.3043 164.591 45.2596 165.252 45.8852 166.222C46.5109 167.193 46.7557 168.393 46.5659 169.56Z"
            fill="#2F2E41" />
        <path d="M28.2035 166.14H31.5912L33.2028 151.956H28.2029L28.2035 166.14Z" fill="#FFB9B9" />
        <path
            d="M38.122 169.554H27.4744V165.089H34.0082C35.0992 165.089 36.1456 165.56 36.9171 166.397C37.6886 167.234 38.122 168.37 38.122 169.554Z"
            fill="#2F2E41" />
        <path
            d="M42.3386 161.056C42.2857 161.056 42.2329 161.053 42.1804 161.046L38.1927 160.69C37.8375 160.644 37.5134 160.448 37.2917 160.143C37.0701 159.838 36.969 159.451 37.0107 159.065C37.0134 159.041 37.0166 159.016 37.0203 158.992L40.98 137.792L38.492 123.552C38.4719 123.436 38.4138 123.332 38.3285 123.259C38.2432 123.186 38.1364 123.149 38.028 123.155C37.9195 123.161 37.8167 123.209 37.7385 123.291C37.6603 123.373 37.612 123.482 37.6025 123.6L33.9386 159.782C33.9045 160.163 33.7353 160.515 33.4667 160.763C33.1981 161.011 32.8511 161.137 32.499 161.113L28.7423 160.961C28.4131 160.936 28.1038 160.78 27.8729 160.524C27.6419 160.268 27.5053 159.93 27.4888 159.572L27.7889 115.85L47.2658 113.207L48.6264 136.015L48.621 136.039L43.6491 159.937C43.5775 160.256 43.4095 160.54 43.1719 160.742C42.9343 160.945 42.6408 161.056 42.3386 161.056Z"
            fill="#2F2E41" />
        <path
            d="M40.6053 119.177C39.5435 119.184 38.5021 118.861 37.6043 118.245C34.3166 116.015 30.5824 116.901 28.649 117.629C28.4572 117.702 28.2526 117.727 28.0507 117.702C27.8487 117.677 27.6545 117.603 27.4827 117.485C27.3129 117.369 27.1694 117.213 27.0629 117.029C26.9565 116.844 26.8899 116.636 26.8681 116.42L23.3531 82.3373C22.7639 76.627 25.9329 71.2583 30.8882 69.572C31.0744 69.5086 31.2636 69.4485 31.456 69.3917C32.998 68.938 34.6129 68.8565 36.1871 69.1531C37.7613 69.4497 39.2564 70.1172 40.5674 71.1085C41.9028 72.1105 43.0197 73.418 43.8395 74.939C44.6593 76.46 45.1619 78.1575 45.3122 79.9121L48.2726 114.222C48.2926 114.444 48.2648 114.668 48.1914 114.877C48.1179 115.086 48.0009 115.273 47.8494 115.424C46.8119 116.466 43.8005 119.176 40.6053 119.177Z"
            fill="#C58EF1" />
        <path
            d="M29.8997 89.6456L21.9677 88.6992C21.7421 88.6722 21.5244 88.5928 21.3295 88.4663C21.1347 88.3398 20.9673 88.1693 20.8386 87.9662C20.71 87.7631 20.6232 87.5324 20.5841 87.2896C20.545 87.0469 20.5546 86.7978 20.6122 86.5595L22.6312 78.207C22.6921 77.5847 22.8655 76.9816 23.1413 76.432C23.4171 75.8825 23.79 75.3973 24.2386 75.0043C24.6872 74.6112 25.2028 74.318 25.7559 74.1414C26.309 73.9647 26.8888 73.9081 27.4621 73.9748C28.0353 74.0414 28.5909 74.2301 29.0969 74.5299C29.603 74.8298 30.0496 75.2349 30.4114 75.7222C30.7731 76.2095 31.0428 76.7694 31.2051 77.3699C31.3674 77.9704 31.419 78.5997 31.3571 79.2219C31.3553 79.2399 31.3535 79.2578 31.3515 79.2758L31.6512 87.8767C31.6597 88.123 31.6192 88.3683 31.5325 88.5961C31.4457 88.8238 31.3148 89.0286 31.1486 89.1964C30.9823 89.3643 30.7848 89.4913 30.5692 89.5688C30.3537 89.6463 30.1253 89.6725 29.8997 89.6456Z"
            fill="#C58EF1" />
        <path
            d="M48.2395 115.903C48.5653 115.592 48.8243 115.207 48.9982 114.775C49.1721 114.344 49.2566 113.876 49.2459 113.405C49.2352 112.934 49.1296 112.471 48.9363 112.05C48.743 111.628 48.4669 111.257 48.1274 110.964L46.1729 83.1164L40.4282 84.5201L43.8005 111.639C43.3842 112.291 43.2026 113.086 43.2901 113.873C43.3777 114.661 43.7282 115.386 44.2754 115.911C44.8225 116.437 45.5283 116.726 46.2589 116.725C46.9896 116.723 47.6943 116.431 48.2397 115.903L48.2395 115.903Z"
            fill="#FFB9B9" />
        <path
            d="M38.2256 87.895C38.0592 87.7271 37.9281 87.5222 37.8414 87.2943C37.7547 87.0664 37.7143 86.8208 37.7231 86.5744L38.0228 77.9735C37.8993 76.7222 38.2371 75.4688 38.9623 74.487C39.6876 73.5052 40.7414 72.8748 41.8934 72.7336C43.0455 72.5924 44.2022 72.9518 45.1109 73.7334C46.0196 74.515 46.6064 75.6551 46.7431 76.9048L48.762 85.2572C48.8196 85.4956 48.8292 85.7446 48.7902 85.9874C48.7511 86.2301 48.6643 86.4609 48.5356 86.6639C48.407 86.867 48.2396 87.0376 48.0447 87.1641C47.8499 87.2905 47.6322 87.37 47.4065 87.3969L39.4746 88.3433C39.2489 88.3704 39.0205 88.3443 38.8049 88.2667C38.5893 88.1892 38.3917 88.0621 38.2256 87.8941V87.895Z"
            fill="#C58EF1" />
        <path d="M149.688 169.56H0V170H149.688V169.56Z" fill="#CACACA" />
    </g>
    <defs>
        <clipPath id="clip0_302_170">
            <rect width="171.57" height="170" fill="white" />
        </clipPath>
    </defs>
</svg>
    