<svg width="12" height="12" viewBox="0 0 12 12" fill="none" xmlns="http://www.w3.org/2000/svg">
    <path fill-rule="evenodd" clip-rule="evenodd"
        d="M6.63954 9.649L6.00008 10.2074L5.36062 9.649C3.07666 7.65469 1.91675 5.88988 1.91675 4.25C1.91675 1.92916 3.72712 0.166668 6.00008 0.166668C8.27304 0.166668 10.0834 1.92916 10.0834 4.25C10.0834 5.88988 8.9235 7.65469 6.63954 9.649ZM2.31665 7.63532C2.55616 7.96324 2.82297 8.29678 3.11694 8.63607C2.03064 8.88074 1.33341 9.22798 1.33341 9.5C1.33341 9.97072 3.42125 10.6667 6.00008 10.6667C8.57892 10.6667 10.6667 9.97072 10.6667 9.5C10.6667 9.22798 9.96952 8.88074 8.88322 8.63607C9.1772 8.29678 9.444 7.96324 9.68351 7.63532C10.9953 8.03338 11.8334 8.67188 11.8334 9.5C11.8334 10.9623 9.22024 11.8333 6.00008 11.8333C2.77993 11.8333 0.166748 10.9623 0.166748 9.5C0.166748 8.67188 1.00485 8.03338 2.31665 7.63532ZM6.00008 1.33333C7.63561 1.33333 8.91675 2.58059 8.91675 4.25C8.91675 5.44406 7.96747 6.91344 6.00008 8.65768C4.03269 6.91344 3.08342 5.44406 3.08342 4.25C3.08342 2.58059 4.36456 1.33333 6.00008 1.33333ZM6.00008 2.5C6.96658 2.5 7.75008 3.2835 7.75008 4.25C7.75008 5.2165 6.96658 6 6.00008 6C5.03358 6 4.25008 5.2165 4.25008 4.25C4.25008 3.2835 5.03358 2.5 6.00008 2.5ZM5.41675 4.25C5.41675 3.92784 5.67792 3.66667 6.00008 3.66667C6.32225 3.66667 6.58341 3.92784 6.58341 4.25C6.58341 4.57217 6.32225 4.83333 6.00008 4.83333C5.67792 4.83333 5.41675 4.57217 5.41675 4.25Z"
        fill="#8C50C9" />
</svg>
    