<svg width="172" height="170" viewBox="0 0 172 170" fill="none" xmlns="http://www.w3.org/2000/svg">
    <g clip-path="url(#clip0_302_123)">
        <path
            d="M87.9952 40.3553H87.2223V14.794C87.2223 10.8704 85.9294 7.10748 83.6281 4.33306C81.3269 1.55864 78.2056 -1.52569e-05 74.9511 -1.52569e-05H30.0306C28.4191 -4.66353e-05 26.8235 0.382582 25.3346 1.12602C23.8458 1.86946 22.4931 2.95916 21.3536 4.33289C20.2141 5.70662 19.3101 7.33749 18.6934 9.13238C18.0767 10.9273 17.7593 12.851 17.7593 14.7938V155.025C17.7593 156.967 18.0767 158.891 18.6934 160.686C19.31 162.481 20.2139 164.112 21.3534 165.486C22.4929 166.859 23.8457 167.949 25.3345 168.693C26.8233 169.436 28.4189 169.819 30.0304 169.819H74.9505C78.205 169.819 81.3263 168.26 83.6275 165.486C85.9288 162.711 87.2217 158.948 87.2217 155.025V58.5501H87.9946L87.9952 40.3553Z"
            fill="#3F3D56" />
        <path
            d="M84.7196 13.8031V156.015C84.7192 158.99 83.739 161.843 81.9944 163.947C80.2497 166.05 77.8835 167.233 75.416 167.234H29.5739C27.1054 167.234 24.7379 166.053 22.992 163.949C21.2461 161.845 20.2649 158.991 20.2642 156.015V13.8031C20.2649 10.8272 21.2461 7.97356 22.9919 5.86973C24.7376 3.7659 27.1051 2.58423 29.5735 2.58461H35.1344C34.8614 3.39414 34.7574 4.27214 34.8318 5.14143C34.9061 6.01073 35.1564 6.8447 35.5607 7.57006C35.965 8.29541 36.5109 8.88993 37.1504 9.30137C37.7899 9.7128 38.5034 9.92856 39.2283 9.92966H65.3636C66.0885 9.92856 66.8021 9.7128 67.4416 9.30137C68.0811 8.88993 68.627 8.29541 69.0313 7.57006C69.4355 6.8447 69.6859 6.01073 69.7602 5.14143C69.8345 4.27214 69.7306 3.39414 69.4575 2.58461H75.4142C77.8817 2.58512 80.2481 3.76693 81.993 5.87024C83.738 7.97355 84.7187 10.8262 84.7196 13.801V13.8031Z"
            fill="white" />
        <path
            d="M74.0776 136.725H31.7412C30.2186 136.723 28.7588 135.992 27.6821 134.694C26.6054 133.396 25.9998 131.636 25.998 129.801V57.9979C25.998 40.5643 37.7625 26.381 52.223 26.381H74.0777C75.6004 26.383 77.0601 27.1132 78.1368 28.4112C79.2134 29.7092 79.8191 31.4691 79.8208 33.3048V129.801C79.8191 131.636 79.2135 133.396 78.1368 134.694C77.0601 135.993 75.6003 136.723 74.0776 136.725Z"
            fill="#E6E6E6" />
        <path
            d="M29.2052 154.009C30.8885 154.009 32.2531 152.364 32.2531 150.334C32.2531 148.305 30.8885 146.66 29.2052 146.66C27.5218 146.66 26.1572 148.305 26.1572 150.334C26.1572 152.364 27.5218 154.009 29.2052 154.009Z"
            fill="#E6E6E6" />
        <path
            d="M76.6737 154.009C78.357 154.009 79.7216 152.364 79.7216 150.334C79.7216 148.305 78.357 146.66 76.6737 146.66C74.9903 146.66 73.6257 148.305 73.6257 150.334C73.6257 152.364 74.9903 154.009 76.6737 154.009Z"
            fill="#E6E6E6" />
        <path d="M77.087 136.583L75.1974 139.066L66.3562 131.461L69.145 127.797L77.087 136.583Z"
            fill="#FFB6B6" />
        <path
            d="M79.5648 138.158L73.4724 146.163L73.3884 146.07C72.7031 145.312 72.2956 144.256 72.2557 143.136C72.2157 142.015 72.5466 140.922 73.1754 140.095L73.1755 140.095L73.3683 137.615L76.3648 135.905L76.8966 135.206L79.5648 138.158Z"
            fill="#2F2E41" />
        <path d="M78.3223 164.286L75.5277 164.286L74.1982 151.291L78.3228 151.291L78.3223 164.286Z"
            fill="#FFB6B6" />
        <path
            d="M79.0349 167.552L70.0239 167.552V167.414C70.024 166.293 70.3935 165.217 71.0513 164.424C71.709 163.631 72.6011 163.186 73.5313 163.186H73.5315L75.1774 161.68L78.2485 163.186L79.0351 163.186L79.0349 167.552Z"
            fill="#2F2E41" />
        <path
            d="M64.827 98.6832C64.827 98.6832 47.755 118.555 58.5476 124.706H61.8834C61.8834 124.706 62.8858 120.413 65.1808 116.792C65.4959 116.295 66.6766 116.396 67.0045 115.911C69.0065 112.952 71.177 110.411 72.676 110.512L73.6571 124.233L73.173 128.255C72.8683 130.787 72.9485 133.364 73.4098 135.861L73.0684 151.912L79.0543 151.916C79.0543 151.916 79.2961 148.154 79.4983 143.449C79.5525 142.189 80.0022 141.311 80.0453 139.969C80.1486 136.753 79.8062 133.009 79.7402 130.384L84.2535 101.522L64.827 98.6832Z"
            fill="#2F2E41" />
        <path
            d="M72.7121 56.5787L69.9284 61.0681L63.2566 65.7991L67.1808 78.1008L67.3297 87.2538L66.9644 88.3579L67.377 90.1661C67.377 90.1661 67.1866 92.2824 66.1717 93.8536C64.3971 96.6006 61.6874 99.5863 64.4337 100.339C68.7507 101.522 84.0566 104.124 84.8414 101.995C85.1129 101.258 85.0792 98.1442 84.9189 94.3852C84.889 93.6823 84.2449 92.9177 84.2073 92.181C84.179 91.6282 84.7586 91.1083 84.7271 90.5477C84.377 84.3007 83.8604 77.8645 83.8604 77.8645L85.3964 60.6407L79.2524 58.7292L78.5627 56.6092L72.7121 56.5787Z"
            fill="#C58EF1" />
        <path
            d="M57.7278 123.526L58.6403 124.916C58.6403 124.916 67.0327 131.995 67.3209 132.656L68.6472 134.169L71.8564 130.033L70.1875 127.511C68.8519 125.493 67.1264 123.901 65.1619 122.873L62.6042 120.137L57.7278 123.526Z"
            fill="#2F2E41" />
        <path
            d="M63.0605 103.658L64.5888 85.8241L64.9922 78.4841L60.7145 77.5516C60.7145 77.5516 60.074 82.5975 59.5136 85.5587C58.9606 88.4807 60.2503 103.267 60.2845 103.657C59.9703 103.996 59.7489 104.441 59.6494 104.935C59.5499 105.429 59.5771 105.947 59.7273 106.422C59.8776 106.897 60.1439 107.305 60.4909 107.593C60.8379 107.882 61.2493 108.036 61.6708 108.036C62.0922 108.037 62.5038 107.883 62.851 107.595C63.1982 107.307 63.4648 106.899 63.6155 106.424C63.7661 105.95 63.7937 105.431 63.6946 104.937C63.5955 104.443 63.3744 103.998 63.0605 103.658Z"
            fill="#FFB9B9" />
        <path
            d="M57.5336 88.8202L64.9181 91.08L64.8668 88.5813L65.4272 87.8644L66.547 80.7925L68.1536 76.6498L67.736 62.4831L63.6555 65.0922L63.6505 65.0969C62.9379 66.0419 62.342 67.1058 61.881 68.2556C60.3427 72.0258 58.865 80.3301 58.0915 85.1534C58.0649 85.2545 58.0136 85.3437 57.9443 85.409C57.5606 85.8337 57.3102 86.405 57.2354 87.0265C57.1606 87.648 57.2659 88.2815 57.5336 88.8202L57.5336 88.8202Z"
            fill="#C58EF1" />
        <path
            d="M101.386 93.3735C101.386 93.3735 92.3962 81.9472 92.3123 81.7318C91.6844 75.9826 89.8782 73.4466 89.6075 73.7219L84.9458 75.6689C84.9458 75.6689 86.3324 80.9626 87.2712 84.107C88.1683 87.1115 98.5073 94.4503 98.6799 94.8126C98.4946 95.3057 98.4379 95.855 98.5172 96.3878C98.5966 96.9206 98.8082 97.4118 99.1241 97.7965C99.44 98.1811 99.8454 98.4411 100.287 98.542C100.728 98.6428 101.184 98.5799 101.595 98.3614C102.005 98.1429 102.352 97.7793 102.587 97.3185C102.823 96.8577 102.937 96.3215 102.914 95.7809C102.892 95.2402 102.733 94.7206 102.461 94.2907C102.188 93.8609 101.813 93.541 101.386 93.3735H101.386Z"
            fill="#FFB9B9" />
        <path
            d="M81.1816 61.0339C81.1816 61.0339 85.7578 58.3301 87.5326 63.6405C88.5056 66.6385 90.9942 73.9145 92.2344 78.3935C92.2426 78.422 92.2539 78.449 92.2682 78.4738C92.5998 79.068 92.7788 79.7669 92.7827 80.4831C92.7823 80.5353 92.7868 80.5873 92.7961 80.6382C92.7961 80.6382 87.7674 81.8193 86.2717 84.9972L85.6785 84.221L85.573 83.6772L81.2345 69.7205L81.1816 61.0339Z"
            fill="#C58EF1" />
        <path
            d="M155.913 82.7078H102.337C101.86 82.7071 101.402 82.4782 101.064 82.0712C100.727 81.6643 100.537 81.1125 100.536 80.537V71.0771C100.537 70.5016 100.727 69.9498 101.064 69.5429C101.402 69.1359 101.86 68.907 102.337 68.9063H155.913C156.39 68.907 156.848 69.1359 157.186 69.5429C157.523 69.9498 157.713 70.5016 157.714 71.0771V80.537C157.713 81.1125 157.523 81.6643 157.186 82.0712C156.848 82.4782 156.39 82.7071 155.913 82.7078Z"
            fill="#E6E6E6" />
        <path
            d="M150.707 81.2436H103.552C103.074 81.2429 102.617 81.014 102.279 80.607C101.942 80.2001 101.752 79.6483 101.751 79.0728V72.5425C101.752 71.967 101.942 71.4152 102.279 71.0083C102.617 70.6013 103.074 70.3724 103.552 70.3717H154.699C155.176 70.3724 155.634 70.6013 155.971 71.0083C156.309 71.4152 156.499 71.967 156.499 72.5425V74.2612C156.497 76.1124 155.887 77.8872 154.801 79.1962C153.715 80.5052 152.243 81.2415 150.707 81.2436Z"
            fill="white" />
        <path
            d="M134.441 75.1341H112.908C112.785 75.1341 112.667 75.0751 112.58 74.9701C112.493 74.8652 112.444 74.7228 112.444 74.5743C112.444 74.4258 112.493 74.2834 112.58 74.1784C112.667 74.0734 112.785 74.0144 112.908 74.0144H134.441C134.565 74.0144 134.683 74.0734 134.77 74.1784C134.857 74.2834 134.906 74.4258 134.906 74.5743C134.906 74.7228 134.857 74.8652 134.77 74.9701C134.683 75.0751 134.565 75.1341 134.441 75.1341Z"
            fill="#C58EF1" />
        <path
            d="M145.342 77.4239H112.908C112.785 77.4239 112.667 77.3649 112.58 77.2599C112.493 77.1549 112.444 77.0125 112.444 76.864C112.444 76.7156 112.493 76.5732 112.58 76.4682C112.667 76.3632 112.785 76.3042 112.908 76.3042H145.342C145.465 76.3042 145.583 76.3632 145.67 76.4682C145.758 76.5732 145.806 76.7156 145.806 76.864C145.806 77.0125 145.758 77.1549 145.67 77.2599C145.583 77.3649 145.465 77.4239 145.342 77.4239Z"
            fill="#E6E6E6" />
        <path
            d="M155.913 102.779H102.337C101.86 102.778 101.402 102.549 101.064 102.142C100.727 101.735 100.537 101.184 100.536 100.608V91.1482C100.537 90.5727 100.727 90.0209 101.064 89.6139C101.402 89.207 101.86 88.9781 102.337 88.9774H155.913C156.39 88.9781 156.848 89.207 157.186 89.6139C157.523 90.0209 157.713 90.5727 157.714 91.1482V100.608C157.713 101.184 157.523 101.735 157.186 102.142C156.848 102.549 156.39 102.778 155.913 102.779Z"
            fill="#E6E6E6" />
        <path
            d="M150.707 101.315H103.552C103.074 101.314 102.617 101.085 102.279 100.678C101.942 100.271 101.752 99.7194 101.751 99.1438V92.6136C101.752 92.0381 101.942 91.4863 102.279 91.0793C102.617 90.6724 103.074 90.4435 103.552 90.4428H154.699C155.176 90.4435 155.634 90.6724 155.971 91.0793C156.309 91.4863 156.499 92.0381 156.499 92.6136V94.3322C156.497 96.1835 155.887 97.9582 154.801 99.2672C153.715 100.576 152.243 101.313 150.707 101.315Z"
            fill="white" />
        <path
            d="M134.441 95.2052H112.908C112.847 95.2052 112.787 95.1907 112.73 95.1626C112.674 95.1344 112.623 95.0932 112.58 95.0412C112.536 94.9892 112.502 94.9275 112.479 94.8596C112.456 94.7917 112.444 94.7189 112.444 94.6453C112.444 94.5718 112.456 94.499 112.479 94.4311C112.502 94.3632 112.536 94.3015 112.58 94.2495C112.623 94.1975 112.674 94.1562 112.73 94.1281C112.787 94.1 112.847 94.0855 112.908 94.0855H134.441C134.565 94.0855 134.683 94.1445 134.77 94.2495C134.857 94.3545 134.906 94.4969 134.906 94.6453C134.906 94.7938 134.857 94.9362 134.77 95.0412C134.683 95.1462 134.565 95.2052 134.441 95.2052Z"
            fill="#C58EF1" />
        <path
            d="M145.342 97.495H112.908C112.847 97.495 112.787 97.4805 112.73 97.4523C112.674 97.4242 112.623 97.383 112.58 97.331C112.536 97.279 112.502 97.2173 112.479 97.1494C112.456 97.0814 112.444 97.0086 112.444 96.9351C112.444 96.8616 112.456 96.7888 112.479 96.7209C112.502 96.653 112.536 96.5912 112.58 96.5392C112.623 96.4873 112.674 96.446 112.73 96.4179C112.787 96.3898 112.847 96.3753 112.908 96.3753H145.342C145.465 96.3753 145.583 96.4343 145.67 96.5392C145.758 96.6442 145.806 96.7866 145.806 96.9351C145.806 97.0836 145.758 97.226 145.67 97.331C145.583 97.436 145.465 97.495 145.342 97.495Z"
            fill="#E6E6E6" />
        <path
            d="M155.913 122.85H102.337C101.86 122.849 101.402 122.62 101.064 122.213C100.727 121.806 100.537 121.255 100.536 120.679V111.219C100.537 110.644 100.727 110.092 101.064 109.685C101.402 109.278 101.86 109.049 102.337 109.048H155.913C156.39 109.049 156.848 109.278 157.186 109.685C157.523 110.092 157.713 110.644 157.714 111.219V120.679C157.713 121.255 157.523 121.806 157.186 122.213C156.848 122.62 156.39 122.849 155.913 122.85Z"
            fill="#E6E6E6" />
        <path
            d="M150.707 121.386H103.552C103.074 121.385 102.617 121.156 102.279 120.749C101.942 120.342 101.752 119.79 101.751 119.215V112.685C101.752 112.109 101.942 111.557 102.279 111.15C102.617 110.743 103.074 110.515 103.552 110.514H154.699C155.176 110.515 155.634 110.743 155.971 111.15C156.309 111.557 156.499 112.109 156.499 112.685V114.403C156.497 116.255 155.887 118.029 154.801 119.338C153.715 120.647 152.243 121.384 150.707 121.386Z"
            fill="white" />
        <path
            d="M134.441 115.276H112.908C112.785 115.276 112.667 115.217 112.58 115.112C112.493 115.007 112.444 114.865 112.444 114.716C112.444 114.568 112.493 114.426 112.58 114.321C112.667 114.216 112.785 114.157 112.908 114.157H134.441C134.565 114.157 134.683 114.216 134.77 114.321C134.857 114.426 134.906 114.568 134.906 114.716C134.906 114.865 134.857 115.007 134.77 115.112C134.683 115.217 134.565 115.276 134.441 115.276Z"
            fill="#C58EF1" />
        <path
            d="M145.342 117.566H112.908C112.785 117.566 112.667 117.507 112.58 117.402C112.493 117.297 112.444 117.155 112.444 117.006C112.444 116.858 112.493 116.715 112.58 116.61C112.667 116.505 112.785 116.446 112.908 116.446H145.342C145.465 116.446 145.583 116.505 145.67 116.61C145.758 116.715 145.806 116.858 145.806 117.006C145.806 117.155 145.758 117.297 145.67 117.402C145.583 117.507 145.465 117.566 145.342 117.566Z"
            fill="#E6E6E6" />
        <path
            d="M75.6453 60.1376C78.7399 60.1376 81.2486 57.1131 81.2486 53.3822C81.2486 49.6514 78.7399 46.6269 75.6453 46.6269C72.5507 46.6269 70.042 49.6514 70.042 53.3822C70.042 57.1131 72.5507 60.1376 75.6453 60.1376Z"
            fill="#FFB9B9" />
        <path
            d="M71.5253 57.7268C71.4581 57.7272 71.3913 57.7142 71.3276 57.6884C71.0775 57.5562 70.8684 57.3322 70.7303 57.0483C69.7655 55.3755 69.2997 53.1452 69.3459 50.4193C69.3654 49.2661 69.4737 47.7916 70.1436 46.6163C70.7069 45.628 71.8465 44.8437 72.9085 45.2374C72.8964 44.9814 72.9435 44.7263 73.0446 44.5007C73.1458 44.2751 73.2969 44.0878 73.4812 43.9598C73.8834 43.6628 74.3677 43.6081 74.7948 43.5597C75.8734 43.4378 76.9884 43.3118 78.0806 43.5613C79.3052 43.8414 80.3065 44.6023 80.8277 45.6491L80.8384 45.682L80.9444 46.3023C80.9586 46.3857 80.9876 46.4643 81.0295 46.5329C81.0714 46.6014 81.1251 46.6582 81.1869 46.6993C81.2488 46.7404 81.3172 46.7649 81.3877 46.7711C81.4581 46.7772 81.5288 46.7649 81.5949 46.7349C81.667 46.7022 81.745 46.6927 81.8211 46.7074C81.8972 46.722 81.9689 46.7604 82.0289 46.8186C82.089 46.8769 82.1354 46.953 82.1636 47.0395C82.1918 47.126 82.2008 47.2198 82.1898 47.3118L82.1602 47.5586L82.4683 47.4891C82.5453 47.4718 82.6248 47.4794 82.6987 47.5111C82.7725 47.5429 82.838 47.5977 82.8886 47.6699C82.9391 47.7422 82.9729 47.8293 82.9864 47.9224C82.9999 48.0155 82.9928 48.1112 82.9656 48.1999L82.8786 48.4836C82.9423 48.4841 83.0053 48.5003 83.0636 48.5313C83.122 48.5623 83.1744 48.6073 83.2178 48.6637C83.2801 48.7444 83.3193 48.8471 83.3298 48.9567C83.3403 49.0663 83.3214 49.177 83.2759 49.2727C82.9317 49.9824 82.4433 50.5749 81.8568 50.9941C81.5362 51.2266 81.1857 51.3928 80.8197 51.4859C78.4444 52.1039 75.9953 52.1926 73.5935 51.7478C73.7357 52.3189 73.7904 52.9165 73.755 53.5112C73.6782 54.2549 73.316 54.8686 72.8323 55.0747C72.7222 55.1179 72.6095 55.1507 72.4951 55.1727C72.3858 55.1933 72.2781 55.2248 72.1732 55.2671C72.0176 55.3359 71.8799 55.453 71.7739 55.6066C71.6679 55.7601 71.5974 55.9446 71.5694 56.1415C71.5414 56.3384 71.557 56.5407 71.6146 56.728C71.6722 56.9153 71.7697 57.081 71.8973 57.2084L72.1358 56.9087L72.0583 57.2897C72.0421 57.3638 72.0132 57.433 71.9733 57.4928C71.9335 57.5526 71.8837 57.6016 71.8271 57.6367C71.7343 57.6964 71.6305 57.7274 71.5253 57.7268Z"
            fill="#2F2E41" />
        <path
            d="M149.474 154.728L149.7 148.582C152.064 147.059 154.7 146.255 157.379 146.239C153.691 149.874 154.152 156.882 151.652 161.77C150.862 163.288 149.799 164.571 148.542 165.526C147.285 166.481 145.866 167.083 144.39 167.287L141.304 169.565C140.88 166.719 140.974 163.796 141.577 160.997C142.181 158.198 143.281 155.591 144.801 153.354C145.664 152.11 146.654 151.001 147.747 150.054C148.486 152.404 149.474 154.728 149.474 154.728Z"
            fill="#F2F2F2" />
        <path
            d="M171.57 169.716C171.57 169.753 171.564 169.79 171.552 169.825C171.54 169.859 171.523 169.891 171.501 169.917C171.479 169.943 171.453 169.964 171.425 169.979C171.396 169.993 171.365 170 171.334 170H0.235851C0.173299 170 0.113312 169.97 0.0690816 169.917C0.0248511 169.863 0 169.791 0 169.716C0 169.64 0.0248511 169.568 0.0690816 169.515C0.113312 169.461 0.173299 169.431 0.235851 169.431H171.334C171.365 169.431 171.396 169.438 171.425 169.453C171.453 169.467 171.479 169.488 171.501 169.514C171.523 169.541 171.54 169.572 171.552 169.607C171.564 169.641 171.57 169.678 171.57 169.716Z"
            fill="#CCCCCC" />
    </g>
    <defs>
        <clipPath id="clip0_302_123">
            <rect width="171.57" height="170" fill="white" />
        </clipPath>
    </defs>
</svg>
    