<svg width="12" height="12" viewBox="0 0 12 12" fill="none" xmlns="http://www.w3.org/2000/svg">
    <path fill-rule="evenodd" clip-rule="evenodd"
        d="M3.66675 2.5H2.50008V1.91667H1.33342V3.66667H10.6667V1.91667H9.50008V2.5H8.33342V1.91667H3.66675V2.5ZM1.33342 10.6667V4.83333H10.6667V10.6667H1.33342ZM8.33342 0.75H3.66675V0.166666H2.50008V0.75H1.33342C0.689083 0.75 0.166748 1.27233 0.166748 1.91667V10.6667C0.166748 11.311 0.689083 11.8333 1.33342 11.8333H10.6667C11.3111 11.8333 11.8334 11.311 11.8334 10.6667V1.91667C11.8334 1.27233 11.3111 0.75 10.6667 0.75H9.50008V0.166666H8.33342V0.75ZM7.92094 5.58752L5.41675 8.09171L4.07923 6.75419L3.25427 7.57915L5.41675 9.74163L8.74589 6.41248L7.92094 5.58752Z"
        fill="#8C50C9" />
</svg>
    